<svg xmlns="http://www.w3.org/2000/svg" xmlns:xlink="http://www.w3.org/1999/xlink" width="500" zoomAndPan="magnify" viewBox="0 0 375 374.999991" height="500" preserveAspectRatio="xMidYMid meet" version="1.0"><defs><g/></defs><g fill="#94afff" fill-opacity="1"><g transform="translate(93.801479, 257.77232)"><g><path d="M 135.15625 -84.890625 L 127.484375 -97.5625 L 127.484375 -176.375 L 135.15625 -176.375 Z M 150.5 -59.75 L 142.828125 -72.640625 L 142.828125 -176.375 L 150.5 -176.375 Z M 165.828125 -34.296875 L 158.15625 -47.28125 L 158.15625 -176.375 L 165.828125 -176.375 Z M 55.921875 -91.484375 L 63.578125 -78.8125 L 63.578125 0 L 55.921875 0 Z M 40.578125 -116.625 L 48.25 -103.734375 L 48.25 0 L 40.578125 0 Z M 25.234375 -142.078125 L 32.90625 -129.078125 L 32.90625 0 L 25.234375 0 Z M 27.90625 -176.375 L 36.84375 -176.375 L 145.28125 0 L 136.328125 0 Z M 46.015625 -176.375 L 55.0625 -176.375 L 163.375 0 L 154.21875 0 Z M 64.015625 -176.375 L 72.953125 -176.375 L 173.5 -12.46875 L 173.5 -176.375 L 181.171875 -176.375 L 181.171875 0 C 181.171875 0 178.148438 0 172.109375 0 Z M 17.578125 -163.90625 L 17.578125 0 L 9.90625 0 L 9.90625 -176.375 C 9.90625 -176.375 12.957031 -176.375 19.0625 -176.375 L 127.171875 0 L 118.328125 0 Z M 17.578125 -163.90625 "/></g></g></g></svg>